# FreeCAD v0.19 build24276 (Git) Arch module
# http://www.freecadweb.org
mtllib tictactoe-O.mtl
o Extrude
usemtl color_cccccc
v 1.352442 0.0 12.125265
v 1.138004 0.0 9.392781
v 1.138004 -5.0 9.392781
v 1.352442 -5.0 12.125265
v 1.995754 0.0 14.377919
v 1.995754 -5.0 14.377919
v 2.228827 0.0 4.085869
v 3.592357 0.0 2.097665
v 3.592357 -5.0 2.097665
v 2.228827 -5.0 4.085869
v 1.41071 0.0 6.517575
v 1.41071 -5.0 6.517575
v 7.63482 -0.0 -0.250059
v 10.225053 -0.0 -0.543524
v 10.225053 -5.0 -0.543524
v 7.63482 -5.0 -0.250059
v 5.423921 0.0 0.630337
v 5.423921 -5.0 0.630337
v 14.969568 0.0 0.637886
v 16.789808 0.0 2.11465
v 16.789808 -5.0 2.11465
v 14.969568 -5.0 0.637886
v 12.781317 -0.0 -0.248172
v 12.781317 -5.0 -0.248172
v 18.979004 0.0 6.572305
v 19.252653 0.0 9.486199
v 19.252653 -5.0 9.486199
v 18.979004 -5.0 6.572305
v 18.158056 -5.0 4.115122
v 18.158056 0.0 4.115121
v 18.150507 0.0 14.891248
v 16.772823 1e-06 16.900213
v 16.772823 -5.0 16.900213
v 18.150507 -5.0 14.891248
v 18.977118 0.0 12.41991
v 18.977118 -5.0 12.41991
v 12.741684 1e-06 19.270582
v 10.174098 1e-06 19.566879
v 10.174098 -5.0 19.566879
v 12.741684 -5.0 19.270582
v 14.941259 1e-06 18.381693
v 14.941259 -5.0 18.381695
v 8.025477 1e-06 19.373672
v 6.14862 1e-06 18.794056
v 6.14862 -5.0 18.794056
v 8.025477 -5.0 19.373672
v 4.88535 1e-06 18.072187
v 3.728238 1e-06 17.044586
v 3.728238 -5.0 17.044586
v 4.88535 -5.0 18.072187
v 5.307646 0.0 6.867238
v 5.019108 0.0 9.528663
v 5.019108 -5.0 9.528663
v 5.307646 -5.0 6.867238
v 5.781028 0.0 5.529265
v 5.781028 -5.0 5.529265
v 6.47983 -5.0 4.441614
v 6.47983 0.0 4.441614
v 5.65322 0.0 13.299363
v 6.44586 0.0 14.615711
v 6.44586 -5.0 14.615711
v 5.65322 -5.0 13.299363
v 5.177636 0.0 11.60368
v 5.177636 -5.0 11.603681
v 8.752064 0.0 16.117952
v 10.208068 0.0 16.305733
v 10.208068 -5.0 16.305733
v 8.752064 -5.0 16.117952
v 7.497995 0.0 15.554612
v 7.497995 -5.0 15.554612
v 12.903043 0.0 15.56216
v 13.944798 0.0 14.632696
v 13.944798 -5.0 14.632696
v 12.903043 -5.0 15.562161
v 11.657466 0.0 16.119839
v 11.657466 -5.0 16.119841
v 15.076093 0.0 12.251107
v 15.354565 0.0 9.579618
v 15.354565 -5.0 9.579618
v 15.076093 -5.0 12.251107
v 14.619224 0.0 13.574926
v 14.619224 -5.0 13.574926
v 14.709129 0.0 5.767398
v 13.902335 0.0 4.433121
v 13.902335 -5.0 4.433121
v 14.709129 -5.0 5.767398
v 15.193206 0.0 7.482897
v 15.193206 -5.0 7.482897
v 11.618778 0.0 2.908233
v 10.208068 0.0 2.717622
v 10.208068 -5.0 2.717622
v 11.618778 -5.0 2.908233
v 12.850201 0.0 3.480066
v 12.850201 -5.0 3.480066
v 7.547063 0.0 3.48384
v 7.547063 -5.0 3.483841
v 8.789809 0.0 2.909177
v 8.789809 -5.0 2.909177
v 3.592357 0.0 2.097665
v 6.47983 0.0 4.441614
v 5.423921 0.0 0.630337
v 7.547063 0.0 3.48384
v 7.63482 -0.0 -0.250059
v 5.781028 0.0 5.529265
v 8.789809 0.0 2.909177
v 1.41071 0.0 6.517575
v 5.307646 0.0 6.867238
v 10.208068 0.0 2.717622
v 11.618778 0.0 2.908233
v 12.781317 -0.0 -0.248172
v 1.352442 0.0 12.125265
v 5.019108 0.0 9.528663
v 1.138004 0.0 9.392781
v 12.850201 0.0 3.480066
v 14.969568 0.0 0.637886
v 1.995754 0.0 14.377919
v 5.177636 0.0 11.60368
v 13.902335 0.0 4.433121
v 5.65322 0.0 13.299363
v 14.709129 0.0 5.767398
v 3.728238 1e-06 17.044586
v 6.44586 0.0 14.615711
v 4.88535 1e-06 18.072187
v 7.497995 0.0 15.554612
v 6.14862 1e-06 18.794056
v 18.979004 0.0 6.572305
v 15.193206 0.0 7.482897
v 8.025477 1e-06 19.373672
v 19.252653 0.0 9.486199
v 15.354565 0.0 9.579618
v 10.174098 1e-06 19.566879
v 18.977118 0.0 12.41991
v 15.076093 0.0 12.251107
v 12.741684 1e-06 19.270582
v 12.903043 0.0 15.56216
v 18.150507 0.0 14.891248
v 14.619224 0.0 13.574926
v 14.941259 1e-06 18.381693
v 13.944798 0.0 14.632696
v 6.47983 -5.0 4.441614
v 3.592357 -5.0 2.097665
v 5.423921 -5.0 0.630337
v 7.547063 -5.0 3.483841
v 7.63482 -5.0 -0.250059
v 5.781028 -5.0 5.529265
v 8.789809 -5.0 2.909177
v 5.307646 -5.0 6.867238
v 1.41071 -5.0 6.517575
v 10.208068 -5.0 2.717622
v 11.618778 -5.0 2.908233
v 12.781317 -5.0 -0.248172
v 5.019108 -5.0 9.528663
v 1.352442 -5.0 12.125265
v 1.138004 -5.0 9.392781
v 12.850201 -5.0 3.480066
v 14.969568 -5.0 0.637886
v 5.177636 -5.0 11.603681
v 1.995754 -5.0 14.377919
v 13.902335 -5.0 4.433121
v 5.65322 -5.0 13.299363
v 14.709129 -5.0 5.767398
v 3.728238 -5.0 17.044586
v 6.44586 -5.0 14.615711
v 4.88535 -5.0 18.072187
v 7.497995 -5.0 15.554612
v 6.14862 -5.0 18.794056
v 18.979004 -5.0 6.572305
v 15.193206 -5.0 7.482897
v 8.025477 -5.0 19.373672
v 19.252653 -5.0 9.486199
v 15.354565 -5.0 9.579618
v 10.174098 -5.0 19.566879
v 18.977118 -5.0 12.41991
v 15.076093 -5.0 12.251107
v 12.741684 -5.0 19.270582
v 12.903043 -5.0 15.562161
v 18.150507 -5.0 14.891248
v 14.619224 -5.0 13.574926
v 14.941259 -5.0 18.381695
v 13.944798 -5.0 14.632696
vn -0.9969348311424255 0.0 0.07823653519153595
vn -0.9969348311424255 0.0 0.07823653519153595
vn -0.9615581631660461 0.0 0.27460139989852905
vn -0.9615581631660461 0.0 0.27460139989852905
vn -0.8246923089027405 0.0 -0.5655816197395325
vn -0.8246923089027405 -0.0 -0.5655816197395325
vn -0.9477969408035278 -3.041024854155694e-08 -0.3188745677471161
vn -0.9477969408035278 0.0 -0.3188745975494385
vn -0.9955320954322815 -0.0 -0.09442362189292908
vn -0.9955320954322815 -8.255175210081234e-09 -0.09442360699176788
vn -0.11257670074701309 -3.658403358031137e-08 -0.9936429858207703
vn -0.1125766858458519 -2.9612868601702758e-08 -0.9936429858207703
vn -0.36995449662208557 -2.2150272727117226e-08 -0.9290498495101929
vn -0.6252342462539673 -1.8607071439191714e-08 -0.7804371118545532
vn -0.36995452642440796 -3.005601811878478e-08 -0.9290498495101929
vn -0.6252343058586121 -0.0 -0.7804371118545532
vn 0.6300318837165833 0.0 -0.7765693068504333
vn 0.6300318241119385 -2.7772282251703473e-08 -0.7765693068504333
vn 0.37531545758247375 -2.7623686449373963e-08 -0.9268971085548401
vn 0.37531545758247375 -4.0395629952172385e-08 -0.9268971085548401
vn 0.11477718502283096 -3.5526440456123964e-08 -0.993391215801239
vn 0.11477718502283096 -3.24281934638293e-08 -0.993391215801239
vn 0.9956192374229431 0.0 -0.09350043535232544
vn 0.9956192374229431 0.0 -0.09350043535232544
vn 0.9484646320343018 0.0 -0.3168831169605255
vn 0.9484646320343018 -3.022032402100194e-08 -0.31688305735588074
vn 0.8254026174545288 0.0 -0.5645444989204407
vn 0.825402557849884 -5.9023477660957724e-08 -0.5645446181297302
vn 0.8247083425521851 0.0 0.5655583143234253
vn 0.8247083425521851 0.0 0.5655583143234253
vn 0.9483568668365479 0.0 0.3172055184841156
vn 0.9483568668365479 0.0 0.3172055184841156
vn 0.9956184029579163 0.0 0.09350897371768951
vn 0.9956184029579163 0.0 0.09350897371768951
vn 0.11463829129934311 0.0 0.9934073090553284
vn 0.11463829129934311 0.0 0.9934073090553284
vn 0.3746795058250427 3.5368131534596614e-07 0.9271543622016907
vn 0.37468022108078003 0.0 0.9271541237831116
vn 0.6288871169090271 0.0 0.7774966359138489
vn 0.6288865804672241 3.0362534175765177e-07 0.7774970531463623
vn -0.2950724959373474 0.0 0.9554747939109802
vn -0.2950724959373474 0.0 0.9554747939109802
vn -0.08955996483564377 0.0 0.9959815144538879
vn -0.08955996483564377 0.0 0.9959815144538879
vn -0.6640233993530273 0.0 0.7477118968963623
vn -0.6640233993530273 0.0 0.7477118968963623
vn -0.49613893032073975 0.0 0.8682430982589722
vn -0.49613893032073975 0.0 0.8682430982589722
vn -0.8385657072067261 0.0 0.5448005795478821
vn -0.8385657072067261 0.0 0.5448005795478821
vn 0.9941744804382324 0.0 0.10778310894966125
vn 0.9941744804382324 0.0 0.10778310894966125
vn 0.9427343010902405 0.0 0.33354452252388
vn 0.8413199782371521 0.0 0.540537416934967
vn 0.9427343010902405 0.0 0.33354452252388
vn 0.8413199782371521 0.0 0.540537416934967
vn 0.8566790819168091 0.0 -0.515849769115448
vn 0.8566790819168091 0.0 -0.515849769115448
vn 0.9628469944000244 -5.150745252535671e-08 -0.2700473964214325
vn 0.962847113609314 0.0 -0.27004727721214294
vn 0.9970943331718445 0.0 -0.07617631554603577
vn 0.9970943331718445 -1.4320715280291552e-08 -0.07617635279893875
vn 0.12791027128696442 0.0 -0.9917857050895691
vn 0.12791027128696442 0.0 -0.9917857050895691
vn 0.40976524353027344 0.0 -0.9121909737586975
vn 0.40976524353027344 0.0 -0.9121909737586975
vn 0.6658163666725159 0.0 -0.7461156845092773
vn 0.6658163666725159 0.0 -0.7461156845092773
vn -0.665746808052063 0.0 -0.7461776733398438
vn -0.6657472252845764 -1.4232203682240652e-07 -0.7461773753166199
vn -0.40863922238349915 -3.4816591210073966e-07 -0.9126960635185242
vn -0.12721268832683563 -3.783704869420035e-07 -0.9918754696846008
vn -0.4086386561393738 -1.7470118507389998e-07 -0.9126963019371033
vn -0.1272139698266983 -0.0 -0.9918752908706665
vn -0.9946110844612122 -1.775292268746398e-08 -0.10367671400308609
vn -0.9946110844612122 -0.0 -0.10367675125598907
vn -0.9452894330024719 -0.0 -0.32623302936553955
vn -0.9452894330024719 0.0 -0.32623302936553955
vn -0.8431921601295471 -0.0 -0.53761225938797
vn -0.8431921601295471 0.0 -0.53761225938797
vn -0.8557257056236267 0.0 0.5174298286437988
vn -0.8557257056236267 4.9345931785182984e-08 0.5174295902252197
vn -0.9624177813529968 2.58992578494599e-08 0.27157339453697205
vn -0.9624176621437073 2.675119681327942e-08 0.27157333493232727
vn -0.9970517754554749 1.4635241463167858e-08 0.07673081755638123
vn -0.9970518946647644 5.668749025744546e-09 0.07673083245754242
vn -0.13390037417411804 4.60581333072696e-08 0.9909948706626892
vn -0.1339002102613449 0.0 0.9909948706626892
vn -0.4211726784706116 4.3248199688150635e-08 0.9069805145263672
vn -0.42117249965667725 0.0 0.9069805145263672
vn -0.671348512172699 0.0 0.7411419153213501
vn -0.6713485717773438 3.358923450491602e-08 0.7411417365074158
vn 0.6679098606109619 0.0 0.7442421317100525
vn 0.6679098010063171 3.5488234573222144e-08 0.7442421913146973
vn 0.41971355676651 4.328044056478575e-08 0.9076566100120544
vn 0.13384787738323212 4.725465174715282e-08 0.9910018444061279
vn 0.41971355676651 4.353305982363054e-08 0.9076566100120544
vn 0.13384787738323212 4.725465174715282e-08 0.9910018444061279
vn 0.0 1.0 -2.9802322387695312e-08
vn 0.0 1.0 -2.9802322387695312e-08
vn -5.596101889987406e-15 1.0 -2.9802318834981634e-08
vn 0.0 1.0 -2.9802322387695312e-08
vn 0.0 1.0 -2.9802322387695312e-08
vn -2.0844105726878023e-16 1.0 -2.980232594040899e-08
vn 0.0 1.0 -2.980232594040899e-08
vn 3.6392304710660024e-16 1.0 -2.980232949312267e-08
vn 2.6141999026933153e-15 1.0 -2.980233304583635e-08
vn -3.843351117673304e-16 1.0 -2.9802322387695312e-08
vn 0.0 1.0 -2.9802322387695312e-08
vn 5.4018755411161e-15 1.0 -2.980232594040899e-08
vn 6.718498895646975e-15 1.0 -2.9802322387695312e-08
vn 7.53632657039642e-15 1.0 -2.980232594040899e-08
vn -6.784979017666057e-16 1.0 -2.9802318834981634e-08
vn 0.0 1.0 -2.9802322387695312e-08
vn -5.463737745385871e-15 1.0 -2.980232594040899e-08
vn 0.0 1.0 -2.9802322387695312e-08
vn -1.7719206102181245e-15 1.0 -2.980233304583635e-08
vn 5.672735925340818e-15 1.0 -2.9802318834981634e-08
vn 0.0 1.0 -2.9802322387695312e-08
vn 0.0 1.0 -2.9802322387695312e-08
vn -6.207546599006552e-15 1.0 -2.980233304583635e-08
vn 3.0569323775201133e-15 1.0 -2.9802311729554276e-08
vn -5.165180230818885e-15 1.0 -2.9802317058624794e-08
vn -3.102737378208784e-15 1.0 -2.980232594040899e-08
vn -5.0724851802361106e-15 1.0 -2.9802317058624794e-08
vn 1.1141740098076242e-14 1.0 -2.9802306400483758e-08
vn 0.0 1.0 -2.9802322387695312e-08
vn 0.0 1.0 -2.9802322387695312e-08
vn 0.0 1.0 -2.9802322387695312e-08
vn 0.0 1.0 -2.9802322387695312e-08
vn -2.2844712368541922e-14 1.0 -2.9802347256691064e-08
vn -1.2597605504740357e-15 1.0 -2.980232594040899e-08
vn -1.627042824370328e-16 1.0 -2.980232949312267e-08
vn 2.7632317075210362e-14 1.0 -2.980233304583635e-08
vn 0.0 1.0 -2.9802322387695312e-08
vn -3.951319252262081e-14 1.0 -2.9802322387695312e-08
vn 0.0 1.0 -2.9802322387695312e-08
vn 0.0 1.0 -2.9802322387695312e-08
vn 1.9610320447583166e-14 1.0 -2.980233304583635e-08
vn -2.154169786885811e-14 1.0 -2.9802315282267955e-08
vn 0.0 1.0 -2.9802322387695312e-08
vn -1.4140376491792762e-14 1.0 -2.9802306400483758e-08
vn -5.882324910776475e-15 1.0 -2.980232949312267e-08
vn -2.6600387846998762e-15 1.0 -2.980233304583635e-08
vn 2.2004699630354466e-14 1.0 -2.980233659855003e-08
vn -9.572069462201408e-15 1.0 -2.9802315282267955e-08
vn 2.0440499133253e-14 1.0 -2.980233659855003e-08
vn 0.0 -1.0 0.0
vn 0.0 -1.0 -0.0
vn -0.0 -1.0 0.0
vn 0.0 -1.0 0.0
vn 0.0 -1.0 -0.0
vn 0.0 -1.0 -0.0
vn -0.0 -1.0 0.0
vn 0.0 -1.0 0.0
vn 0.0 -1.0 -0.0
vn -0.0 -1.0 -0.0
vn 0.0 -1.0 -0.0
vn 0.0 -1.0 0.0
vn -0.0 -1.0 0.0
vn -5.787168966264744e-09 -1.0 1.6529563140466053e-07
vn -1.5921271412366877e-08 -1.0 1.7744002889230615e-07
vn 0.0 -1.0 -0.0
vn 0.0 -1.0 0.0
vn 0.0 -1.0 0.0
vn -0.0 -1.0 0.0
vn 0.0 -1.0 -0.0
vn -0.0 -1.0 0.0
vn -0.0 -1.0 0.0
vn 0.0 -1.0 -0.0
vn 0.0 -1.0 -0.0
vn -0.0 -1.0 0.0
vn -0.0 -1.0 0.0
vn 0.0 -1.0 -0.0
vn -0.0 -1.0 0.0
vn 0.0 -1.0 0.0
vn 0.0 -1.0 -0.0
vn 0.0 -1.0 0.0
vn -0.0 -1.0 0.0
vn 0.0 -1.0 -0.0
vn 3.849124752264288e-08 -1.0 1.6002776703771815e-07
vn 5.440177641702348e-09 -1.0 2.270017489536258e-07
vn 0.0 -1.0 0.0
vn 0.0 -1.0 -0.0
vn 0.0 -1.0 0.0
vn 0.0 -1.0 -0.0
vn 0.0 -1.0 0.0
vn 0.0 -1.0 -0.0
vn -0.0 -1.0 0.0
vn 0.0 -1.0 -0.0
vn 0.0 -1.0 0.0
vn 0.0 -1.0 0.0
vn -0.0 -1.0 0.0
vn 0.0 -1.0 0.0
vn 0.0 -1.0 -0.0
vn -0.0 -1.0 0.0
f 1//1 2//1 3//1 
f 1//2 3//2 4//2 
f 5//3 4//3 6//3 
f 5//4 1//4 4//4 
f 7//5 8//5 9//5 
f 7//6 9//6 10//6 
f 11//7 10//7 12//7 
f 11//8 7//8 10//8 
f 2//9 12//9 3//9 
f 2//10 11//10 12//10 
f 13//11 14//11 15//11 
f 13//12 15//12 16//12 
f 17//13 16//13 18//13 
f 17//14 18//14 9//14 
f 17//15 13//15 16//15 
f 8//16 17//16 9//16 
f 19//17 20//17 21//17 
f 19//18 21//18 22//18 
f 23//19 22//19 24//19 
f 23//20 19//20 22//20 
f 14//21 24//21 15//21 
f 14//22 23//22 24//22 
f 25//23 26//23 27//23 
f 25//24 27//24 28//24 
f 25//25 28//25 29//25 
f 30//26 25//26 29//26 
f 20//27 29//27 21//27 
f 20//28 30//28 29//28 
f 31//29 32//29 33//29 
f 31//30 33//30 34//30 
f 35//31 34//31 36//31 
f 35//32 31//32 34//32 
f 26//33 36//33 27//33 
f 26//34 35//34 36//34 
f 37//35 38//35 39//35 
f 37//36 39//36 40//36 
f 41//37 40//37 42//37 
f 41//38 37//38 40//38 
f 32//39 42//39 33//39 
f 32//40 41//40 42//40 
f 43//41 44//41 45//41 
f 43//42 45//42 46//42 
f 38//43 46//43 39//43 
f 38//44 43//44 46//44 
f 47//45 48//45 49//45 
f 47//46 49//46 50//46 
f 44//47 50//47 45//47 
f 44//48 47//48 50//48 
f 48//49 5//49 6//49 
f 48//50 6//50 49//50 
f 51//51 52//51 53//51 
f 51//52 53//52 54//52 
f 55//53 54//53 56//53 
f 55//54 56//54 57//54 
f 55//55 51//55 54//55 
f 58//56 55//56 57//56 
f 59//57 60//57 61//57 
f 59//58 61//58 62//58 
f 63//59 62//59 64//59 
f 63//60 59//60 62//60 
f 52//61 64//61 53//61 
f 52//62 63//62 64//62 
f 65//63 66//63 67//63 
f 65//64 67//64 68//64 
f 69//65 68//65 70//65 
f 69//66 65//66 68//66 
f 60//67 70//67 61//67 
f 60//68 69//68 70//68 
f 71//69 72//69 73//69 
f 71//70 73//70 74//70 
f 75//71 74//71 76//71 
f 75//72 76//72 67//72 
f 75//73 71//73 74//73 
f 66//74 75//74 67//74 
f 77//75 78//75 79//75 
f 77//76 79//76 80//76 
f 81//77 80//77 82//77 
f 81//78 77//78 80//78 
f 72//79 82//79 73//79 
f 72//80 81//80 82//80 
f 83//81 84//81 85//81 
f 83//82 85//82 86//82 
f 87//83 86//83 88//83 
f 87//84 83//84 86//84 
f 78//85 88//85 79//85 
f 78//86 87//86 88//86 
f 89//87 90//87 91//87 
f 89//88 91//88 92//88 
f 93//89 92//89 94//89 
f 93//90 89//90 92//90 
f 84//91 94//91 85//91 
f 84//92 93//92 94//92 
f 95//93 58//93 57//93 
f 95//94 57//94 96//94 
f 97//95 96//95 98//95 
f 97//96 98//96 91//96 
f 97//97 95//97 96//97 
f 90//98 97//98 91//98 
f 99//99 100//99 101//99 
f 101//100 102//100 103//100 
f 100//101 102//101 101//101 
f 7//102 104//102 99//102 
f 99//103 104//103 100//103 
f 103//104 105//104 14//104 
f 102//105 105//105 103//105 
f 106//106 107//106 7//106 
f 7//107 107//107 104//107 
f 105//108 108//108 14//108 
f 14//109 109//109 110//109 
f 108//110 109//110 14//110 
f 111//111 112//111 113//111 
f 113//112 112//112 106//112 
f 106//113 112//113 107//113 
f 110//114 114//114 115//114 
f 109//115 114//115 110//115 
f 116//116 117//116 111//116 
f 111//117 117//117 112//117 
f 114//118 118//118 115//118 
f 118//119 20//119 115//119 
f 116//120 119//120 117//120 
f 118//121 120//121 20//121 
f 116//122 121//122 119//122 
f 121//123 122//123 119//123 
f 120//124 30//124 20//124 
f 121//125 123//125 122//125 
f 123//126 124//126 122//126 
f 124//127 125//127 65//127 
f 123//128 125//128 124//128 
f 120//129 126//129 30//129 
f 127//130 126//130 120//130 
f 125//131 128//131 65//131 
f 127//132 129//132 126//132 
f 130//133 129//133 127//133 
f 128//134 131//134 65//134 
f 65//135 131//135 66//135 
f 66//136 131//136 75//136 
f 130//137 132//137 129//137 
f 133//138 132//138 130//138 
f 75//139 134//139 135//139 
f 131//140 134//140 75//140 
f 133//141 136//141 132//141 
f 137//142 136//142 133//142 
f 135//143 138//143 139//143 
f 134//144 138//144 135//144 
f 139//145 32//145 137//145 
f 137//146 32//146 136//146 
f 138//147 32//147 139//147 
f 140//148 141//148 142//148 
f 143//149 142//149 144//149 
f 143//150 140//150 142//150 
f 145//151 10//151 141//151 
f 145//152 141//152 140//152 
f 146//153 144//153 15//153 
f 146//154 143//154 144//154 
f 147//155 148//155 10//155 
f 147//156 10//156 145//156 
f 149//157 146//157 15//157 
f 150//158 15//158 151//158 
f 150//159 149//159 15//159 
f 152//160 153//160 154//160 
f 152//161 154//161 148//161 
f 152//162 148//162 147//162 
f 155//163 151//163 156//163 
f 155//164 150//164 151//164 
f 157//165 158//165 153//165 
f 157//166 153//166 152//166 
f 159//167 155//167 156//167 
f 21//168 159//168 156//168 
f 160//169 158//169 157//169 
f 161//170 159//170 21//170 
f 162//171 158//171 160//171 
f 163//172 162//172 160//172 
f 29//173 161//173 21//173 
f 164//174 162//174 163//174 
f 165//175 164//175 163//175 
f 166//176 165//176 68//176 
f 166//177 164//177 165//177 
f 167//178 161//178 29//178 
f 167//179 168//179 161//179 
f 169//180 166//180 68//180 
f 170//181 168//181 167//181 
f 170//182 171//182 168//182 
f 172//183 169//183 68//183 
f 172//184 68//184 67//184 
f 172//185 67//185 76//185 
f 173//186 171//186 170//186 
f 173//187 174//187 171//187 
f 175//188 76//188 176//188 
f 175//189 172//189 76//189 
f 177//190 174//190 173//190 
f 177//191 178//191 174//191 
f 179//192 176//192 180//192 
f 179//193 175//193 176//193 
f 33//194 180//194 178//194 
f 33//195 178//195 177//195 
f 33//196 179//196 180//196 
