# FreeCAD v0.19 build24276 (Git) Arch module
# http://www.freecadweb.org
mtllib tictactoe-X.mtl
o Extrude001
usemtl color_cccccc
v -14.537155 0.0 9.893843
v -21.0 0.0 0.0
v -21.0 -5.0 0.0
v -14.537155 -5.0 9.893843
v -16.473461 0.0 0.0
v -16.473461 -5.0 0.0
v -12.320595 0.0 6.44586
v -12.320595 -5.0 6.44586
v -8.184713 0.0 0.0
v -8.184713 -5.0 0.0
v -3.632696 0.0 0.0
v -3.632696 -5.0 0.0
v -10.078556 0.0 9.919321
v -10.078556 -5.0 9.919321
v -4.210191 1e-06 19.023355
v -4.210191 -5.0 19.023355
v -8.575372 1e-06 19.023355
v -8.575372 -5.0 19.023355
v -12.295116 0.0 13.333333
v -12.295116 -5.0 13.333333
v -15.989385 1e-06 19.023355
v -15.989385 -5.0 19.023355
v -20.397028 1e-06 19.023355
v -20.397028 -5.0 19.023355
v -14.537155 0.0 9.893843
v -12.320595 0.0 6.44586
v -10.078556 0.0 9.919321
v -12.295116 0.0 13.333333
v -20.397028 1e-06 19.023355
v -15.989385 1e-06 19.023355
v -8.575372 1e-06 19.023355
v -4.210191 1e-06 19.023355
v -14.537155 -5.0 9.893843
v -12.320595 -5.0 6.44586
v -10.078556 -5.0 9.919321
v -12.295116 -5.0 13.333333
v -15.989385 -5.0 19.023355
v -20.397028 -5.0 19.023355
v -8.575372 -5.0 19.023355
v -4.210191 -5.0 19.023355
vn -0.8372100591659546 0.0 0.5468814373016357
vn -0.8372100591659546 0.0 0.546881377696991
vn 0.0 -2.980232594040899e-08 -1.0
vn 0.0 -2.980232594040899e-08 -1.0
vn 0.840638279914856 0.0 -0.5415969491004944
vn 0.840638279914856 -1.6140848657641982e-08 -0.5415969491004944
vn -0.8416465520858765 0.0 -0.5400288105010986
vn -0.8416465520858765 -0.0 -0.5400288105010986
vn 0.0 -2.980232594040899e-08 -1.0
vn 0.0 -2.980232594040899e-08 -1.0
vn 0.8385092616081238 0.0 0.544887363910675
vn 0.838509202003479 1.6238910660604233e-08 0.5448874235153198
vn 0.8405154943466187 0.0 -0.5417874455451965
vn 0.8405154943466187 0.0 -0.5417874455451965
vn 0.0 0.0 1.0
vn 0.0 0.0 1.0
vn -0.8370136618614197 0.0 0.5471819639205933
vn -0.8370137214660645 0.0 0.5471819639205933
vn 0.8387295603752136 0.0 0.5445482730865479
vn 0.8387295603752136 0.0 0.5445482730865479
vn 0.0 0.0 1.0
vn 0.0 0.0 1.0
vn -0.8415598273277283 0.0 -0.5401639342308044
vn -0.8415598273277283 -0.0 -0.5401639342308044
vn 0.0 1.0 -2.980232594040899e-08
vn 0.0 1.0 -2.980232594040899e-08
vn 5.917554281602202e-15 1.0 -2.9802322387695312e-08
vn 0.0 1.0 -2.9802322387695312e-08
vn 6.3751138564124496e-15 1.0 -2.9802320611338473e-08
vn 6.394714198811914e-15 1.0 -2.980232594040899e-08
vn 0.0 1.0 -2.9802318834981634e-08
vn -4.464671701461843e-15 1.0 -2.9802322387695312e-08
vn 8.983007175296983e-15 1.0 -2.9802322387695312e-08
vn 0.0 1.0 -2.9802322387695312e-08
vn 0.0 -1.0 4.8195342827739296e-08
vn -1.074444426762966e-07 -1.0 6.922309836454588e-08
vn 1.0665758765071587e-07 -1.0 6.843511357601528e-08
vn 0.0 -1.0 4.807155207231517e-08
vn -7.873822149839782e-10 -1.0 1.3778834784261562e-07
vn 0.0 -1.0 -0.0
vn -0.0 -1.0 -0.0
vn 0.0 -1.0 0.0
vn 0.0 -1.0 0.0
vn -0.0 -1.0 0.0
f 1//1 2//1 3//1 
f 1//2 3//2 4//2 
f 5//3 6//3 3//3 
f 2//4 5//4 3//4 
f 5//5 7//5 8//5 
f 5//6 8//6 6//6 
f 7//7 9//7 10//7 
f 7//8 10//8 8//8 
f 11//9 12//9 10//9 
f 9//10 11//10 10//10 
f 12//11 13//11 14//11 
f 11//12 13//12 12//12 
f 14//13 15//13 16//13 
f 13//14 15//14 14//14 
f 17//15 18//15 16//15 
f 15//16 17//16 16//16 
f 17//17 19//17 20//17 
f 17//18 20//18 18//18 
f 20//19 21//19 22//19 
f 19//20 21//20 20//20 
f 23//21 24//21 22//21 
f 21//22 23//22 22//22 
f 24//23 1//23 4//23 
f 23//24 1//24 24//24 
f 2//25 25//25 5//25 
f 5//26 25//26 26//26 
f 26//27 27//27 9//27 
f 9//28 27//28 11//28 
f 25//29 27//29 26//29 
f 25//30 28//30 27//30 
f 29//31 30//31 25//31 
f 25//32 30//32 28//32 
f 28//33 31//33 27//33 
f 31//34 32//34 27//34 
f 33//35 3//35 6//35 
f 33//36 6//36 34//36 
f 35//37 34//37 10//37 
f 35//38 10//38 12//38 
f 35//39 33//39 34//39 
f 36//40 33//40 35//40 
f 37//41 38//41 33//41 
f 37//42 33//42 36//42 
f 39//43 36//43 35//43 
f 40//44 39//44 35//44 
